<svg width="35" height="36" viewBox="0 0 35 36" fill="none" xmlns="http://www.w3.org/2000/svg">
<path d="M6.11133 0.105469C5.26367 0.295315 5.10645 0.421875 2.89844 2.7C0.970703 4.67578 0.820312 4.85156 0.594727 5.34375C0.21875 6.15938 0.129883 6.59531 0.0888671 7.74844C0.0478515 8.90859 0.136719 9.675 0.478516 11.0109C2.53613 19.0477 11.7373 29.6227 20.542 34.0664C23.1533 35.3813 25.1289 35.9578 27.0703 35.9648C28.2598 35.9648 28.8613 35.8383 29.6885 35.4234C30.2217 35.1562 30.3584 35.0227 32.2793 33.0539C34.4258 30.8461 34.5488 30.6844 34.8223 29.7492C34.9658 29.257 34.9658 28.3289 34.8223 27.8367C34.5762 26.993 34.4736 26.8664 31.7598 24.0609C30.3311 22.5773 28.9707 21.2273 28.7451 21.0586C27.3916 20.0672 25.6484 20.2078 24.5137 21.3961C24.1719 21.7547 24.0352 21.9656 23.8027 22.5352C23.6387 22.9148 23.4268 23.3438 23.3242 23.4844C22.668 24.3984 21.4102 24.975 20.3369 24.8625C18.7373 24.6867 16.3516 23.1961 14.3281 21.1148C11.8809 18.5977 10.4385 15.7008 10.7871 14.0133C10.9512 13.2258 11.4912 12.4031 12.127 11.9672C12.2773 11.8547 12.6055 11.6789 12.8516 11.5734C13.5625 11.2641 13.7334 11.1586 14.0684 10.8633C15.2031 9.84375 15.4492 7.93125 14.6221 6.57422C14.3828 6.17344 9.66602 1.27266 9.0918 0.815624C8.63379 0.457031 8.03223 0.175781 7.49219 0.077343C6.97949 -0.0210915 6.6377 -0.014061 6.11133 0.105469Z" fill="#D9D9D9"/>
</svg>
